<svg xmlns="http://www.w3.org/2000/svg" viewBox="0 0 1080 1080" width="24" height="24">
  <path id="bookmark" fill="#000000" d="M 899.84 90.84 C 899.84 90.84 360.3 90.84 360.3 90.84 C 310.84 90.84 270.38 131.3 270.38 180.76 C 270.38 180.76 270.38 720.31 270.38 720.31 C 270.38 769.76 310.84 810.23 360.3 810.23 C 360.3 810.23 899.84 810.23 899.84 810.23 C 949.3 810.23 989.77 769.76 989.77 720.31 C 989.77 720.31 989.77 180.76 989.77 180.76 C 989.77 131.3 949.3 90.84 899.84 90.84 M 899.84 720.31 C 899.84 720.31 360.3 720.31 360.3 720.31 C 360.3 720.31 360.3 180.76 360.3 180.76 C 360.3 180.76 585.11 180.76 585.11 180.76 C 585.11 180.76 585.11 585.42 585.11 585.42 C 585.11 585.42 720 484.26 720 484.26 C 720 484.26 854.88 585.42 854.88 585.42 C 854.88 585.42 854.88 180.76 854.88 180.76 C 854.88 180.76 899.84 180.76 899.84 180.76 C 899.84 180.76 899.84 720.31 899.84 720.31" />
  <path id="angle" fill="#000000" d="M 180.45 270.69 C 180.45 270.69 90.53 270.69 90.53 270.69 C 90.53 270.69 90.53 900.15 90.53 900.15 C 90.53 949.61 131 990.08 180.45 990.08 C 180.45 990.08 809.92 990.08 809.92 990.08 C 809.92 990.08 809.92 900.15 809.92 900.15 C 809.92 900.15 180.45 900.15 180.45 900.15 C 180.45 900.15 180.45 270.69 180.45 270.69" />
</svg>
